<svg xmlns="http://www.w3.org/2000/svg" viewBox="0 0 478 100">
<g>
  <rect x="13" y="13" width="74" height="74" rx="19" fill="none" stroke="#5AABEB" stroke-width="9" transform="rotate(-7 50 50)"/>
  <path d="M31 52 L45.5 66.5 L71 35.5" fill="none" stroke="#5AABEB" stroke-width="11" stroke-linecap="round" stroke-linejoin="round"/>
</g>
<g transform="translate(126,2)"><path fill="#5AABEB" d="M83.80000000000001 69.9V81.9H3.4000000000000004V69.9ZM50.400000000000006 17.200000000000003Q50.400000000000006 29.400000000000006 58.6 37.400000000000006Q67.3 45.900000000000006 80.80000000000001 49.90000000000001L73.4 59.900000000000006Q57.900000000000006 54.500000000000014 47.5 44.10000000000001Q45.300000000000004 41.900000000000006 43.6 39.50000000000001Q41.900000000000006 41.900000000000006 39.7 44.10000000000001Q29.200000000000003 54.500000000000014 13.8 59.900000000000006L6.5 50.00000000000001Q19.700000000000003 45.70000000000001 28.6 37.400000000000006Q36.800000000000004 29.70000000000001 36.800000000000004 17.200000000000003V6.200000000000003H50.400000000000006Z M134.10000000000002 6.700000000000003V18.200000000000003H128.0V43.10000000000001Q132.7 42.80000000000001 137.3 42.400000000000006V53.80000000000001Q126.2 55.000000000000014 113.9 55.000000000000014H88.9V43.50000000000001H96.7V18.200000000000003H89.9V6.700000000000003ZM115.9 18.200000000000003H108.80000000000001V43.50000000000001H115.9ZM139.60000000000002 36.30000000000001H131.10000000000002V24.10000000000001H139.60000000000002V3.200000000000003H151.8V56.70000000000001H139.60000000000002ZM155.2 3.200000000000003H167.8V56.70000000000001H155.2ZM154.4 93.80000000000001V71.30000000000001H107.5V59.400000000000006H167.8V93.80000000000001Z M205.9 27.900000000000006Q205.9 38.900000000000006 209.9 47.90000000000001Q214.60000000000002 58.500000000000014 222.9 67.4L213.60000000000002 74.60000000000001Q204.3 64.00000000000001 199.4 54.30000000000001Q194.10000000000002 64.70000000000002 184.5 75.00000000000001L174.70000000000002 67.60000000000001Q183.6 59.20000000000001 189.0 47.70000000000001Q193.0 40.20000000000001 193.20000000000002 28.000000000000007V24.000000000000007H177.6V12.000000000000014H193.20000000000002V1.8000000000000114H205.9V12.000000000000014H220.10000000000002V24.000000000000007H205.9ZM242.2 3.200000000000003H255.4V92.70000000000002H242.2ZM236.9 92.70000000000002H224.0V44.80000000000001H213.10000000000002V32.20000000000001H224.0V3.200000000000003H236.9Z M334.6 7.800000000000011V34.900000000000006Q334.6 54.80000000000001 331.5 68.9H345.40000000000003V80.9H265.0V68.9H318.40000000000003Q320.40000000000003 59.20000000000001 321.0 48.30000000000001H272.70000000000005V37.00000000000001H321.20000000000005V19.80000000000001H273.3V7.800000000000011Z"/></g>
</svg>